<?xml version="1.0" encoding="UTF-8"?>
<svg version="1.1" xmlns="http://www.w3.org/2000/svg" width="449" height="449">
<path d="M0 0 C148.17 0 296.34 0 449 0 C449 148.17 449 296.34 449 449 C300.83 449 152.66 449 0 449 C0 300.83 0 152.66 0 0 Z " fill="#FEFEFE" transform="translate(0,0)"/>
<path d="M0 0 C2 1 2 1 3.1484375 3.921875 C3.56494865 5.19543793 3.97344807 6.47164163 4.375 7.75 C4.77460938 8.98234375 5.17421875 10.2146875 5.5859375 11.484375 C6.36232795 13.94185658 7.12278414 16.40336496 7.87329102 18.86889648 C10.49696704 27.48481263 13.31326819 36.02801628 16.1875 44.5625 C17.07858396 47.20904796 17.96761473 49.85627324 18.85546875 52.50390625 C19.43784302 54.23362671 19.43784302 54.23362671 20.03198242 55.99829102 C20.78271449 58.32622312 21.45316921 60.61824001 22 63 C22.72703125 63.03738281 23.4540625 63.07476562 24.203125 63.11328125 C25.20859375 63.17902344 26.2140625 63.24476563 27.25 63.3125 C28.22453125 63.37050781 29.1990625 63.42851562 30.203125 63.48828125 C33.65926687 63.95407815 36.86257013 64.67228581 40.23730469 65.53198242 C41.31679382 65.80580246 42.39628296 66.0796225 43.50848389 66.36174011 C44.3306842 66.57236588 45.15288452 66.78299164 46 67 C45.95836549 59.40072376 45.8860726 51.80218194 45.79248047 44.20336914 C45.76425863 41.61847567 45.74305021 39.0334957 45.72900391 36.44848633 C45.70759223 32.73213377 45.66094764 29.01682253 45.609375 25.30078125 C45.60753204 23.56771477 45.60753204 23.56771477 45.60565186 21.79963684 C45.53690183 15.48863431 45.53690183 15.48863431 43.08691406 9.79370117 C40.15004901 7.26946772 38.43390637 6.86024896 34.6484375 6.68359375 C33.79765625 6.64169922 32.946875 6.59980469 32.0703125 6.55664062 C31.18085938 6.51732422 30.29140625 6.47800781 29.375 6.4375 C28.4778125 6.39431641 27.580625 6.35113281 26.65625 6.30664062 C24.43765717 6.20043139 22.2189512 6.09838806 20 6 C20 4.68 20 3.36 20 2 C30.82352094 1.93010266 41.64698707 1.87698873 52.47068882 1.84456348 C57.49803779 1.82899115 62.52523092 1.80790935 67.55249023 1.77368164 C72.41546572 1.74078439 77.27829249 1.7230838 82.14137077 1.71536827 C83.98506952 1.70987871 85.8287613 1.69916121 87.67239571 1.68280983 C102.37845594 1.55771695 116.0241563 2.63264783 129.6875 8.625 C130.48639648 8.96909912 131.28529297 9.31319824 132.10839844 9.66772461 C139.22319757 12.86249059 145.11801416 16.84500118 151 22 C151.64839844 22.53882812 152.29679687 23.07765625 152.96484375 23.6328125 C163.54347497 33.17996721 172.16048176 49.40933485 173.19287109 63.6628418 C173.88253071 89.65464997 169.94907763 109.07945123 151.75 128.625 C141.79448908 138.20441384 128.42699292 144.36007206 115 147 C115.27561768 147.5762915 115.55123535 148.15258301 115.83520508 148.74633789 C116.67413274 150.50045936 117.5129932 152.25461297 118.35180664 154.00878906 C119.33879199 156.07217078 120.32627221 158.13531584 121.31420898 160.19824219 C123.83021906 165.45367798 126.33956742 170.71197184 128.828125 175.98046875 C134.58898047 188.15400394 140.57667908 200.16202233 147 212 C147.57596924 213.06903564 147.57596924 213.06903564 148.16357422 214.15966797 C159.76259918 235.6116813 172.80473542 255.61517851 197.125 263.70703125 C204.52430767 265.65495505 212.39299016 265.64531733 220 266 C220 267.32 220 268.64 220 270 C188.34410102 270.83993609 188.34410102 270.83993609 174 266 C172.94554687 265.66097656 171.89109375 265.32195312 170.8046875 264.97265625 C148.97388984 256.96423048 132.94824001 237.35494697 123 217 C115.79993248 201.35767015 110.30980954 185.08700789 104.75 168.8125 C104.19020029 167.1763994 103.63030516 165.54033144 103.0703125 163.90429688 C101.71244243 159.93657303 100.35586047 155.968411 99 152 C97.90328979 151.96241577 97.90328979 151.96241577 96.78442383 151.92407227 C93.46028583 151.80777359 90.13640759 151.68520072 86.8125 151.5625 C85.66201172 151.52318359 84.51152344 151.48386719 83.32617188 151.44335938 C82.21435547 151.40146484 81.10253906 151.35957031 79.95703125 151.31640625 C78.42526245 151.26141968 78.42526245 151.26141968 76.86254883 151.20532227 C74.16171537 151.01159937 71.63833872 150.59548047 69 150 C69 148.68 69 147.36 69 146 C78.24 146.33 87.48 146.66 97 147 C90.50713803 126.57699781 83.57436651 105.14870022 69.76953125 88.2734375 C68 86 68 86 68 84 C67.34 84 66.68 84 66 84 C66 95.22 66 106.44 66 118 C62.04 116.02 58.08 114.04 54 112 C51.36 111.01 48.72 110.02 46 109 C45.67 96.79 45.34 84.58 45 72 C39.07784135 70.02594712 33.97500699 68.93804343 27.7734375 68.9765625 C25.90558594 68.98816406 25.90558594 68.98816406 24 69 C28.13858241 83.03042142 32.51659665 96.97385794 37.00195312 110.89697266 C39.42310571 118.42457767 41.81569271 125.96128598 44.20507812 133.49902344 C44.98121664 135.94090395 45.7635503 138.38072926 46.546875 140.8203125 C47.01059668 142.27598433 47.47414928 143.73171005 47.9375 145.1875 C48.33839844 146.43917969 48.73929688 147.69085938 49.15234375 148.98046875 C50 152 50 152 50 155 C51.2375 155.350625 52.475 155.70125 53.75 156.0625 C69.85836723 161.45728336 82.51205762 172.30750803 90.375 187.25 C93.9563467 194.54657552 94.31230545 201.31144148 94.25 209.3125 C94.25773438 210.29412109 94.26546875 211.27574219 94.2734375 212.28710938 C94.24839942 221.74524231 92.99646906 229.88453673 88.625 238.3125 C88.03976562 239.46363281 87.45453125 240.61476563 86.8515625 241.80078125 C85 245 85 245 82.7890625 247.73828125 C80.74324432 249.89840411 80.74324432 249.89840411 80.75 252.875 C82.87247225 258.18118061 87.29155163 261.67031695 92.37109375 264.1640625 C95.39297105 265.12495662 98.15105273 265.41655293 101.3125 265.625 C102.38113281 265.69976562 103.44976562 265.77453125 104.55078125 265.8515625 C105.35902344 265.90054687 106.16726563 265.94953125 107 266 C107 267.32 107 268.64 107 270 C96.12466655 270.0697813 85.24938715 270.12295337 74.37387466 270.15543652 C69.32289929 270.17103372 64.27207808 270.19216233 59.22119141 270.22631836 C54.33877821 270.25912517 49.45651249 270.27689763 44.5739975 270.28463173 C42.71944612 270.29013721 40.86490201 270.30088712 39.01041412 270.31719017 C25.98501909 270.42705244 14.02709285 269.88118678 2.375 263.375 C1.74529297 263.03235107 1.11558594 262.68970215 0.46679688 262.33666992 C-5.42320651 259.00135774 -10.14069713 254.68163183 -15 250 C-18.36082452 246.99510802 -20.8633459 245.10148697 -25.5 244.6875 C-30.41048348 246.5289313 -33.06077357 249.73230965 -36 254 C-36.33 254.99 -36.66 255.98 -37 257 C-37.66 257 -38.32 257 -39 257 C-39 236.54 -39 216.08 -39 195 C-37.68 195.33 -36.36 195.66 -35 196 C-33.86268657 198.88139728 -32.99127394 201.58730249 -32.1875 204.5625 C-25.90654392 225.96577082 -16.20733069 247.44034795 4 259 C14.83415592 264.27326173 23.94431781 265.18134382 35.875 265.1875 C37.11636719 265.19974609 38.35773438 265.21199219 39.63671875 265.22460938 C50.12795205 265.24692124 50.12795205 265.24692124 60 262 C59.38247149 256.49722572 58.04379592 251.55304918 56.30859375 246.3046875 C55.76151457 244.6120873 55.21582159 242.91903854 54.67138672 241.22558594 C54.39284851 240.36074585 54.1143103 239.49590576 53.82733154 238.6048584 C52.51175957 234.46277203 51.27069894 230.29934879 50.03515625 226.1328125 C49.67105148 224.90817543 49.67105148 224.90817543 49.29959106 223.65879822 C48.80506008 221.99475011 48.3108702 220.33060059 47.8170166 218.66635132 C44.03878148 205.94055736 40.26306112 193.23128953 35.87915039 180.69775391 C34.82669478 177.6662278 34 175.23551857 34 172 C32.78441406 171.61070312 31.56882813 171.22140625 30.31640625 170.8203125 C-20.01270202 154.00789306 -20.01270202 154.00789306 -30.9375 135.5 C-31.66207975 134.01755592 -32.35129298 132.5171801 -33 131 C-33.30550781 130.29230469 -33.61101562 129.58460938 -33.92578125 128.85546875 C-35.58664185 124.48685436 -36.23377681 120.36529705 -36.578125 115.70703125 C-36.6596582 114.63557861 -36.74119141 113.56412598 -36.82519531 112.46020508 C-36.88288086 111.6483374 -36.94056641 110.83646973 -37 110 C-39.17021401 115.54550242 -41.33892162 121.09159092 -43.50634766 126.63818359 C-44.24097889 128.51756974 -44.97599281 130.39680635 -45.71142578 132.27587891 C-49.63765704 142.30839069 -53.53655999 152.34770714 -57.29785156 162.44335938 C-59.06802358 167.19230925 -60.86079902 171.93265693 -62.65264893 176.67346191 C-64.48840563 181.53238379 -66.319376 186.39310381 -68.15014648 191.25390625 C-69.09144469 193.75208595 -70.03493495 196.24942174 -70.98022461 198.74609375 C-76.01959837 212.06562418 -80.987457 225.33097582 -85 239 C-85.33 239.99 -85.66 240.98 -86 242 C-86.5079081 248.22187421 -86.75354356 253.74503901 -83 259 C-78.12141994 263.89190951 -74.10757707 265.09155406 -67.3125 265.5625 C-66.13300781 265.64628906 -64.95351562 265.73007812 -63.73828125 265.81640625 C-62.83464844 265.87699219 -61.93101563 265.93757813 -61 266 C-61 267.32 -61 268.64 -61 270 C-82.45 270 -103.9 270 -126 270 C-126 268.68 -126 267.36 -126 266 C-125.23816406 265.97421875 -124.47632813 265.9484375 -123.69140625 265.921875 C-114.74762331 265.43058106 -107.66739532 264.17402761 -101.3125 257.5 C-93.51165371 247.50053797 -89.50370005 234.99326731 -85.0625 223.25 C-84.40667817 221.52978462 -83.7504186 219.80973607 -83.09375 218.08984375 C-77.88808695 204.43295044 -72.76749731 190.7438518 -67.65136719 177.05322266 C-63.10133172 164.88612404 -58.47858235 152.74804934 -53.8125 140.625 C-53.49603516 139.80225586 -53.17957031 138.97951172 -52.85351562 138.13183594 C-47.38668881 123.92610882 -47.38668881 123.92610882 -44.859375 117.66796875 C-42.59804786 112.05248865 -40.52400983 106.36974919 -38.4375 100.6875 C-32.60076154 84.86190275 -26.60521545 69.09795578 -20.60449219 53.33398438 C-19.21454324 49.6813505 -17.8256954 46.02830066 -16.4375 42.375 C-15.98850342 41.19405762 -15.53950684 40.01311523 -15.0769043 38.79638672 C-12.73052657 32.61128934 -10.40750499 26.41840335 -8.12109375 20.2109375 C-7.77216316 19.2643074 -7.77216316 19.2643074 -7.41618347 18.29855347 C-6.30107769 15.27138547 -5.18988747 12.24285676 -4.08374023 9.21240234 C-3.69259033 8.14715332 -3.30144043 7.0819043 -2.8984375 5.984375 C-2.55474121 5.04303711 -2.21104492 4.10169922 -1.85693359 3.13183594 C-1 1 -1 1 0 0 Z " fill="#060606" transform="translate(188,87)"/>
<path d="M0 0 C2 1 2 1 3.1484375 3.921875 C3.56494865 5.19543793 3.97344807 6.47164163 4.375 7.75 C4.77460938 8.98234375 5.17421875 10.2146875 5.5859375 11.484375 C6.36232795 13.94185658 7.12278414 16.40336496 7.87329102 18.86889648 C10.49696704 27.48481263 13.31326819 36.02801628 16.1875 44.5625 C17.07858396 47.20904796 17.96761473 49.85627324 18.85546875 52.50390625 C19.43784302 54.23362671 19.43784302 54.23362671 20.03198242 55.99829102 C20.78271449 58.32622312 21.45316921 60.61824001 22 63 C22.72703125 63.03738281 23.4540625 63.07476562 24.203125 63.11328125 C25.20859375 63.17902344 26.2140625 63.24476563 27.25 63.3125 C28.22453125 63.37050781 29.1990625 63.42851562 30.203125 63.48828125 C35.54896069 64.20875911 40.76688844 65.69172211 46 67 C46 49.51 46 32.02 46 14 C46.33 14 46.66 14 47 14 C47 45.66666667 47 77.33333333 47 109 C46.67 109 46.34 109 46 109 C45.67 96.79 45.34 84.58 45 72 C39.07784135 70.02594712 33.97500699 68.93804343 27.7734375 68.9765625 C25.90558594 68.98816406 25.90558594 68.98816406 24 69 C28.13858241 83.03042142 32.51659665 96.97385794 37.00195312 110.89697266 C39.42310571 118.42457767 41.81569271 125.96128598 44.20507812 133.49902344 C44.98121664 135.94090395 45.7635503 138.38072926 46.546875 140.8203125 C47.01059668 142.27598433 47.47414928 143.73171005 47.9375 145.1875 C48.33839844 146.43917969 48.73929688 147.69085938 49.15234375 148.98046875 C50 152 50 152 50 155 C51.2375 155.350625 52.475 155.70125 53.75 156.0625 C69.85836723 161.45728336 82.51205762 172.30750803 90.375 187.25 C93.9563467 194.54657552 94.31230545 201.31144148 94.25 209.3125 C94.25773438 210.29412109 94.26546875 211.27574219 94.2734375 212.28710938 C94.24839942 221.74524231 92.99646906 229.88453673 88.625 238.3125 C88.03976562 239.46363281 87.45453125 240.61476563 86.8515625 241.80078125 C85 245 85 245 82.7890625 247.73828125 C80.74324432 249.89840411 80.74324432 249.89840411 80.75 252.875 C82.87247225 258.18118061 87.29155163 261.67031695 92.37109375 264.1640625 C95.39297105 265.12495662 98.15105273 265.41655293 101.3125 265.625 C102.38113281 265.69976562 103.44976562 265.77453125 104.55078125 265.8515625 C105.35902344 265.90054687 106.16726563 265.94953125 107 266 C107 267.32 107 268.64 107 270 C96.12466655 270.0697813 85.24938715 270.12295337 74.37387466 270.15543652 C69.32289929 270.17103372 64.27207808 270.19216233 59.22119141 270.22631836 C54.33877821 270.25912517 49.45651249 270.27689763 44.5739975 270.28463173 C42.71944612 270.29013721 40.86490201 270.30088712 39.01041412 270.31719017 C25.98501909 270.42705244 14.02709285 269.88118678 2.375 263.375 C1.74529297 263.03235107 1.11558594 262.68970215 0.46679688 262.33666992 C-5.42320651 259.00135774 -10.14069713 254.68163183 -15 250 C-18.36082452 246.99510802 -20.8633459 245.10148697 -25.5 244.6875 C-30.41048348 246.5289313 -33.06077357 249.73230965 -36 254 C-36.33 254.99 -36.66 255.98 -37 257 C-37.66 257 -38.32 257 -39 257 C-39 236.54 -39 216.08 -39 195 C-37.68 195.33 -36.36 195.66 -35 196 C-33.86268657 198.88139728 -32.99127394 201.58730249 -32.1875 204.5625 C-25.90654392 225.96577082 -16.20733069 247.44034795 4 259 C14.83415592 264.27326173 23.94431781 265.18134382 35.875 265.1875 C37.11636719 265.19974609 38.35773438 265.21199219 39.63671875 265.22460938 C50.12795205 265.24692124 50.12795205 265.24692124 60 262 C59.38247149 256.49722572 58.04379592 251.55304918 56.30859375 246.3046875 C55.76151457 244.6120873 55.21582159 242.91903854 54.67138672 241.22558594 C54.39284851 240.36074585 54.1143103 239.49590576 53.82733154 238.6048584 C52.51175957 234.46277203 51.27069894 230.29934879 50.03515625 226.1328125 C49.67105148 224.90817543 49.67105148 224.90817543 49.29959106 223.65879822 C48.80506008 221.99475011 48.3108702 220.33060059 47.8170166 218.66635132 C44.03878148 205.94055736 40.26306112 193.23128953 35.87915039 180.69775391 C34.82669478 177.6662278 34 175.23551857 34 172 C32.78441406 171.61070312 31.56882813 171.22140625 30.31640625 170.8203125 C-20.01270202 154.00789306 -20.01270202 154.00789306 -30.9375 135.5 C-31.66207975 134.01755592 -32.35129298 132.5171801 -33 131 C-33.30550781 130.29230469 -33.61101562 129.58460938 -33.92578125 128.85546875 C-35.58664185 124.48685436 -36.23377681 120.36529705 -36.578125 115.70703125 C-36.6596582 114.63557861 -36.74119141 113.56412598 -36.82519531 112.46020508 C-36.88288086 111.6483374 -36.94056641 110.83646973 -37 110 C-39.17021401 115.54550242 -41.33892162 121.09159092 -43.50634766 126.63818359 C-44.24097889 128.51756974 -44.97599281 130.39680635 -45.71142578 132.27587891 C-49.63765704 142.30839069 -53.53655999 152.34770714 -57.29785156 162.44335938 C-59.06802358 167.19230925 -60.86079902 171.93265693 -62.65264893 176.67346191 C-64.48840563 181.53238379 -66.319376 186.39310381 -68.15014648 191.25390625 C-69.09144469 193.75208595 -70.03493495 196.24942174 -70.98022461 198.74609375 C-76.01959837 212.06562418 -80.987457 225.33097582 -85 239 C-85.33 239.99 -85.66 240.98 -86 242 C-86.5079081 248.22187421 -86.75354356 253.74503901 -83 259 C-78.12141994 263.89190951 -74.10757707 265.09155406 -67.3125 265.5625 C-66.13300781 265.64628906 -64.95351562 265.73007812 -63.73828125 265.81640625 C-62.83464844 265.87699219 -61.93101563 265.93757813 -61 266 C-61 267.32 -61 268.64 -61 270 C-82.45 270 -103.9 270 -126 270 C-126 268.68 -126 267.36 -126 266 C-125.23816406 265.97421875 -124.47632813 265.9484375 -123.69140625 265.921875 C-114.74762331 265.43058106 -107.66739532 264.17402761 -101.3125 257.5 C-93.51165371 247.50053797 -89.50370005 234.99326731 -85.0625 223.25 C-84.40667817 221.52978462 -83.7504186 219.80973607 -83.09375 218.08984375 C-77.88808695 204.43295044 -72.76749731 190.7438518 -67.65136719 177.05322266 C-63.10133172 164.88612404 -58.47858235 152.74804934 -53.8125 140.625 C-53.49603516 139.80225586 -53.17957031 138.97951172 -52.85351562 138.13183594 C-47.38668881 123.92610882 -47.38668881 123.92610882 -44.859375 117.66796875 C-42.59804786 112.05248865 -40.52400983 106.36974919 -38.4375 100.6875 C-32.60076154 84.86190275 -26.60521545 69.09795578 -20.60449219 53.33398438 C-19.21454324 49.6813505 -17.8256954 46.02830066 -16.4375 42.375 C-15.98850342 41.19405762 -15.53950684 40.01311523 -15.0769043 38.79638672 C-12.73052657 32.61128934 -10.40750499 26.41840335 -8.12109375 20.2109375 C-7.77216316 19.2643074 -7.77216316 19.2643074 -7.41618347 18.29855347 C-6.30107769 15.27138547 -5.18988747 12.24285676 -4.08374023 9.21240234 C-3.69259033 8.14715332 -3.30144043 7.0819043 -2.8984375 5.984375 C-2.55474121 5.04303711 -2.21104492 4.10169922 -1.85693359 3.13183594 C-1 1 -1 1 0 0 Z " fill="#070707" transform="translate(188,87)"/>
<path d="M0 0 C4.54909172 -0.10071218 9.09750101 -0.17231139 13.64746094 -0.21972656 C15.18728977 -0.23954171 16.72704658 -0.2666021 18.26660156 -0.30175781 C38.02684706 -0.74087438 54.77635244 3.27671622 69.4921875 17.30078125 C83.93272776 32.84348112 87.75437664 52.89742456 87.28515625 73.390625 C86.54423966 91.85463842 79.91112812 113.09339536 66 126 C59.64696663 131.31236488 53.90593962 134.6560444 46 137 C45.65855957 136.23558594 45.31711914 135.47117188 44.96533203 134.68359375 C31.33545111 101.89683156 31.33545111 101.89683156 6.25512695 78.23657227 C2.2666624 75.70030737 0.31207613 73.98902932 -1.14175415 69.38156128 C-1.66777735 64.96824025 -1.46512237 60.58145957 -1.26953125 56.15234375 C-1.24524627 54.52860415 -1.22675931 52.90476846 -1.21379089 51.28089905 C-1.16443942 47.03186241 -1.03704548 42.7887189 -0.89263916 38.54199219 C-0.75899869 34.19872785 -0.70014379 29.85449871 -0.63476562 25.50976562 C-0.49585634 17.00382261 -0.27438391 8.50264665 0 0 Z " fill="#FDFDFD" transform="translate(254,93)"/>
<path d="M0 0 C3.42036213 9.28551917 6.53214192 18.56331397 9.10424805 28.12011719 C10.60533805 33.66645689 12.2557446 39.15042286 14 44.625 C14.37330444 45.80147095 14.37330444 45.80147095 14.75415039 47.00170898 C15.98948852 50.87989033 17.24618303 54.75000009 18.52734375 58.61328125 C18.76517578 59.34272949 19.00300781 60.07217773 19.24804688 60.82373047 C19.69503212 62.19412644 20.1502726 63.56186802 20.61523438 64.92626953 C21.7448322 68.41348889 22.06352073 70.51624847 21 74 C17.20819269 72.43234869 13.4224543 70.85088466 9.64135742 69.25756836 C8.35999724 68.71975893 7.0771599 68.18545258 5.79272461 67.6550293 C-7.2972818 62.24394726 -21.8447324 55.92286566 -28 42.1875 C-30.55592931 33.83923737 -29.89167138 23.80828937 -26 16 C-20.25591802 7.50984374 -10.86983972 -0.75374801 0 0 Z " fill="#FAFAFA" transform="translate(191,157)"/>
<path d="M0 0 C1.32 0.33 2.64 0.66 4 1 C5.13731343 3.88139728 6.00872606 6.58730249 6.8125 9.5625 C13.09345608 30.96577082 22.79266931 52.44034795 43 64 C48.9150752 66.8790189 54.46148927 69.0907988 61 70 C60.505 71.98 60.505 71.98 60 74 C53.96067934 73.5225036 49.47989894 72.22693405 44.125 69.4375 C43.08073853 68.90394897 43.08073853 68.90394897 42.01538086 68.35961914 C35.12887766 64.72988969 29.44461238 60.05680834 23.640625 54.90625 C19.07449131 51.02421909 19.07449131 51.02421909 13.375 49.5625 C8.63148369 51.58288658 5.89732157 54.79315456 3 59 C2.67 59.99 2.34 60.98 2 62 C1.34 62 0.68 62 0 62 C0 41.54 0 21.08 0 0 Z " fill="#0D0D0D" transform="translate(149,282)"/>
<path d="M0 0 C0.66 0.33 1.32 0.66 2 1 C1.835 2.093125 1.67 3.18625 1.5 4.3125 C0.01025607 15.68061173 0.01025607 15.68061173 4 26 C8.87858006 30.89190951 12.89242293 32.09155406 19.6875 32.5625 C20.86699219 32.64628906 22.04648438 32.73007812 23.26171875 32.81640625 C24.61716797 32.90728516 24.61716797 32.90728516 26 33 C26 34.32 26 35.64 26 37 C4.55 37 -16.9 37 -39 37 C-39 35.68 -39 34.36 -39 33 C-38.23816406 32.97421875 -37.47632813 32.9484375 -36.69140625 32.921875 C-27.74762331 32.43058106 -20.66739532 31.17402761 -14.3125 24.5 C-10.27663122 19.49964286 -7.68962225 13.79659967 -5 8 C-2.26267281 2.26267281 -2.26267281 2.26267281 0 0 Z " fill="#141414" transform="translate(101,320)"/>
<path d="M0 0 C11.19586432 6.43872829 21.39790891 13.8859362 25.56640625 26.75390625 C27.7239716 37.93048351 25.73786718 50.16365626 20 60 C19.34 60 18.68 60 18 60 C7.07846504 24.32570695 7.07846504 24.32570695 3.375 12 C3.14022949 11.22043945 2.90545898 10.44087891 2.66357422 9.63769531 C1.70577029 6.43917082 0.79382809 3.24287219 0 0 Z " fill="#F7F7F7" transform="translate(247,272)"/>
<path d="M0 0 C1.32 1.32 2.64 2.64 4 4 C3.09492508 6.71522477 2.02370277 9.15172622 0.80859375 11.73828125 C-2.41074414 18.77227446 -5.17217116 25.96755823 -7.9375 33.1875 C-8.44177225 34.49555263 -8.94632869 35.80349574 -9.45117188 37.11132812 C-12.14990351 44.11367102 -14.80911625 51.13024523 -17.43757629 58.15930176 C-19.50916773 63.69791039 -21.59503881 69.23105899 -23.68351746 74.76332092 C-25.52661889 79.64747645 -27.36597942 84.53303726 -29.20507812 89.41870117 C-30.153479 91.93728594 -31.10379764 94.45513513 -32.05566406 96.97241211 C-33.45033022 100.66095776 -34.83856391 104.3519087 -36.2265625 108.04296875 C-36.6464444 109.15061081 -37.06632629 110.25825287 -37.49893188 111.39945984 C-40.29402026 118.85179969 -42.7402579 126.36862869 -45 134 C-45.99 133.34 -46.98 132.68 -48 132 C-48.66 132.33 -49.32 132.66 -50 133 C-47.94925525 125.72665226 -45.44727596 118.71903603 -42.6875 111.6875 C-41.78802098 109.37280029 -40.8896481 107.05767054 -39.9921875 104.7421875 C-39.75387711 104.12803482 -39.51556671 103.51388214 -39.27003479 102.88111877 C-36.53245526 95.81500031 -33.86159227 88.72381551 -31.18783569 81.63336182 C-25.7975175 67.34149212 -20.35807622 53.06904034 -14.875 38.8125 C-14.55721588 37.98561676 -14.23943176 37.15873352 -13.91201782 36.30679321 C-10.91674598 28.51534488 -7.9116938 20.73051574 -4.79150391 12.98803711 C-3.72254231 10.30310366 -2.72634568 7.59482011 -1.75 4.875 C-1.41484375 3.94429687 -1.0796875 3.01359375 -0.734375 2.0546875 C-0.49203125 1.37664062 -0.2496875 0.69859375 0 0 Z " fill="#191919" transform="translate(149,189)"/>
<path d="M0 0 C2.47101332 2.47101332 2.91747393 4.40770575 3.9453125 7.7421875 C4.29980469 8.89074219 4.65429688 10.03929687 5.01953125 11.22265625 C5.38433594 12.42792969 5.74914062 13.63320312 6.125 14.875 C6.49753906 16.07253906 6.87007812 17.27007812 7.25390625 18.50390625 C10 27.48654991 10 27.48654991 10 32 C9.33355469 32.20753906 8.66710937 32.41507813 7.98046875 32.62890625 C-1.51557052 35.80310679 -9.27226815 40.6848643 -17 47 C-15.79956317 40.84063532 -14.09825275 35.14085278 -11.77734375 29.31640625 C-11.47180069 28.53482651 -11.16625763 27.75324677 -10.85145569 26.94798279 C-9.88627282 24.48369365 -8.91194998 22.02313715 -7.9375 19.5625 C-7.28001587 17.88629631 -6.6231097 16.20986579 -5.96679688 14.53320312 C-1.22721569 2.45443137 -1.22721569 2.45443137 0 0 Z " fill="#F3F3F3" transform="translate(179,121)"/>
<path d="M0 0 C3.2594885 1.38986847 4.95488675 2.91215416 7.125 5.6875 C15.20940897 15.16222134 26.67340437 21.28594676 39 23 C38.67 24.32 38.34 25.64 38 27 C31.96068204 26.52250381 27.47990019 25.22696218 22.125 22.4375 C21.43027588 22.08252441 20.73555176 21.72754883 20.01977539 21.36181641 C14.08909696 18.23562072 9.00342213 14.46176726 4 10 C2.62596622 8.83219552 1.25106275 7.66541298 -0.125 6.5 C-1.07375 5.675 -2.0225 4.85 -3 4 C-2.01 2.68 -1.02 1.36 0 0 Z " fill="#141414" transform="translate(171,329)"/>
<path d="M0 0 C0.99 0.33 1.98 0.66 3 1 C2 4 2 4 0 6 C-0.85612496 7.77341522 -0.85612496 7.77341522 -1.60400391 9.83544922 C-2.05424423 11.01710159 -2.05424423 11.01710159 -2.51358032 12.22262573 C-2.9902565 13.50074631 -2.9902565 13.50074631 -3.4765625 14.8046875 C-3.80667328 15.68021271 -4.13678406 16.55573792 -4.47689819 17.45779419 C-5.1738603 19.31116748 -5.86801073 21.16560016 -6.55957031 23.02099609 C-7.61935531 25.85987937 -8.69187177 28.69371883 -9.765625 31.52734375 C-10.44088134 33.32783372 -11.11538561 35.12860596 -11.7890625 36.9296875 C-12.11089508 37.77771942 -12.43272766 38.62575134 -12.76431274 39.4994812 C-13.05816864 40.29355377 -13.35202454 41.08762634 -13.65478516 41.90576172 C-13.91522614 42.60144257 -14.17566711 43.29712341 -14.44400024 44.0138855 C-15.17971962 46.29824027 -15.17971962 46.29824027 -15 50 C-15.66 50 -16.32 50 -17 50 C-17 49.34 -17 48.68 -17 48 C-18.485 48.495 -18.485 48.495 -20 49 C-18.22026042 40.91701605 -15.25326274 33.42846773 -12.1328125 25.79492188 C-8.8055905 17.62419773 -5.85404822 9.34592888 -3 1 C-2.34 1.33 -1.68 1.66 -1 2 C-0.67 1.34 -0.34 0.68 0 0 Z " fill="#191919" transform="translate(178,119)"/>
<path d="M0 0 C0.33 0 0.66 0 1 0 C1 31.66666667 1 63.33333333 1 95 C0.67 95 0.34 95 0 95 C-0.495 76.685 -0.495 76.685 -1 58 C-6.06369138 56.26984537 -6.06369138 56.26984537 -11.0859375 55.3671875 C-11.78847656 55.28339844 -12.49101562 55.19960937 -13.21484375 55.11328125 C-13.92769531 55.03464844 -14.64054688 54.95601562 -15.375 54.875 C-16.11105469 54.78863281 -16.84710938 54.70226562 -17.60546875 54.61328125 C-19.40299182 54.40318115 -21.20141342 54.20079233 -23 54 C-23.33 52.68 -23.66 51.36 -24 50 C-22.25088741 49.91626589 -20.50048141 49.85962835 -18.75 49.8125 C-17.77546875 49.77769531 -16.8009375 49.74289063 -15.796875 49.70703125 C-10.43400042 50.1208333 -5.21821749 51.69544563 0 53 C0 35.51 0 18.02 0 0 Z " fill="#454545" transform="translate(234,101)"/>
<path d="M0 0 C0.62003906 0.06058594 1.24007813 0.12117187 1.87890625 0.18359375 C3.20728516 0.30927734 3.20728516 0.30927734 4.5625 0.4375 C5.55507813 0.53160156 6.54765625 0.62570313 7.5703125 0.72265625 C10.02024711 0.92077169 12.4744337 1.06888507 14.9296875 1.18359375 C15.59411865 1.21590088 16.2585498 1.24820801 16.94311523 1.28149414 C18.86660142 1.37167595 20.79072973 1.44782599 22.71484375 1.5234375 C26.19447025 2.0282109 27.35609679 2.83409262 30 5 C25.93751511 5.02909769 21.87505714 5.04683174 17.8125 5.0625 C16.08676758 5.07506836 16.08676758 5.07506836 14.32617188 5.08789062 C13.21435547 5.09111328 12.10253906 5.09433594 10.95703125 5.09765625 C9.93585205 5.10289307 8.91467285 5.10812988 7.86254883 5.11352539 C5.13098384 5.00519467 2.65830626 4.61706868 0 4 C0 2.68 0 1.36 0 0 Z " fill="#262626" transform="translate(257,233)"/>
<path d="M0 0 C-0.99 0.66 -1.98 1.32 -3 2 C-3 2.66 -3 3.32 -3 4 C-4.22976562 4.59748047 -4.22976562 4.59748047 -5.484375 5.20703125 C-7.10085937 6.00173828 -7.10085937 6.00173828 -8.75 6.8125 C-9.81734375 7.33457031 -10.8846875 7.85664063 -11.984375 8.39453125 C-14.55233242 9.7616692 -16.74470783 11.17715463 -19 13 C-19.33 12.01 -19.66 11.02 -20 10 C-20.66 9.67 -21.32 9.34 -22 9 C-19.94047642 7.70337462 -17.87762943 6.41264273 -15.8125 5.125 C-15.23435547 4.76019531 -14.65621094 4.39539063 -14.06054688 4.01953125 C-4.75748616 -1.76203191 -4.75748616 -1.76203191 0 0 Z " fill="#1B1B1B" transform="translate(189,154)"/>
<path d="M0 0 C5.28 0 10.56 0 16 0 C16 1.32 16 2.64 16 4 C6.43 4 -3.14 4 -13 4 C-13 3.67 -13 3.34 -13 3 C-8.38 3 -3.76 3 1 3 C0.67 2.01 0.34 1.02 0 0 Z " fill="#303030" transform="translate(392,353)"/>
<path d="M0 0 C2.75383923 1.37691962 3.51483101 3.36720042 5 6 C3.0429132 6.67031719 1.08428887 7.33614683 -0.875 8 C-1.96554687 8.37125 -3.05609375 8.7425 -4.1796875 9.125 C-7 10 -7 10 -9 10 C-9.33 10.66 -9.66 11.32 -10 12 C-9.7215625 10.824375 -9.7215625 10.824375 -9.4375 9.625 C-8.74037734 7.02910225 -8.74037734 7.02910225 -10 5 C-8.38007835 4.13624104 -6.75388139 3.28424146 -5.125 2.4375 C-4.22007812 1.96183594 -3.31515625 1.48617187 -2.3828125 0.99609375 C-1.20332031 0.50302734 -1.20332031 0.50302734 0 0 Z " fill="#141414" transform="translate(312,224)"/>
<path d="M0 0 C1.32 1.32 2.64 2.64 4 4 C3.01914396 6.94256813 1.84181396 9.67563921 0.5625 12.5 C0.13066406 13.4590625 -0.30117187 14.418125 -0.74609375 15.40625 C-2 18 -2 18 -4 21 C-4 20.01 -4 19.02 -4 18 C-4.66 18 -5.32 18 -6 18 C-4.23536928 11.89262558 -2.30442525 5.92566493 0 0 Z " fill="#181818" transform="translate(149,189)"/>
<path d="M0 0 C4.51478398 0.53115106 7.34666857 2.36620292 11 5 C10.01 5.495 10.01 5.495 9 6 C9 7.98 9 9.96 9 12 C4.125 7.375 4.125 7.375 3 4 C2.34 4 1.68 4 1 4 C0.67 4.66 0.34 5.32 0 6 C-1.125 2.25 -1.125 2.25 0 0 Z " fill="#111111" transform="translate(253,167)"/>
<path d="M0 0 C4.68738665 0.90723613 9.34193744 1.9547267 14 3 C13.67 4.32 13.34 5.64 13 7 C8.28596212 6.52060632 4.33420699 6.03165952 0 4 C0 2.68 0 1.36 0 0 Z " fill="#1D1D1D" transform="translate(196,349)"/>
<path d="M0 0 C3.63 0.33 7.26 0.66 11 1 C9.515 3.475 9.515 3.475 8 6 C3.62065881 5.48041715 -0.68803391 4.94324258 -5 4 C-4.360625 3.71125 -3.72125 3.4225 -3.0625 3.125 C-0.84793921 2.17176549 -0.84793921 2.17176549 0 0 Z " fill="#202020" transform="translate(293,90)"/>
<path d="M0 0 C1.65 0 3.3 0 5 0 C4.01 3.63 3.02 7.26 2 11 C1.01 10.34 0.02 9.68 -1 9 C-1.99 9.495 -1.99 9.495 -3 10 C-2.01 6.7 -1.02 3.4 0 0 Z " fill="#252525" transform="translate(102,312)"/>
<path d="M0 0 C-0.99 0.66 -1.98 1.32 -3 2 C-3 2.66 -3 3.32 -3 4 C-5.75 5.1875 -5.75 5.1875 -9 6 C-11.375 4.625 -11.375 4.625 -13 3 C-11.5903653 2.29819469 -10.17192359 1.61406042 -8.75 0.9375 C-7.96109375 0.55464844 -7.1721875 0.17179688 -6.359375 -0.22265625 C-3.74006478 -1.08564091 -2.55144824 -0.93045933 0 0 Z " fill="#242424" transform="translate(189,154)"/>
<path d="M0 0 C1.32 1.32 2.64 2.64 4 4 C3.02391783 6.92824652 1.89213369 8.61426621 0 11 C-0.99 10.67 -1.98 10.34 -3 10 C-2.01 6.7 -1.02 3.4 0 0 Z " fill="#2C2C2C" transform="translate(149,189)"/>
<path d="M0 0 C0.66 0 1.32 0 2 0 C1.01 3.3 0.02 6.6 -1 10 C-1.99 10 -2.98 10 -4 10 C-4.33 9.34 -4.66 8.68 -5 8 C-3.62292893 4.85240898 -2.43840236 2.43840236 0 0 Z " fill="#141414" transform="translate(127,252)"/>
<path d="M0 0 C3.96 0.33 7.92 0.66 12 1 C12 1.66 12 2.32 12 3 C8.04 3 4.08 3 0 3 C0 2.01 0 1.02 0 0 Z " fill="#020202" transform="translate(114,353)"/>
<path d="M0 0 C3.875 1.75 3.875 1.75 5 4 C3.68 4 2.36 4 1 4 C0.67 4.99 0.34 5.98 0 7 C-0.99 5.68 -1.98 4.36 -3 3 C-2.01 2.01 -1.02 1.02 0 0 Z " fill="#212121" transform="translate(171,329)"/>
<path d="M0 0 C0.99 0.33 1.98 0.66 3 1 C1.75453595 4.73639216 0.36595047 5.18756513 -3 7 C-3.33 6.01 -3.66 5.02 -4 4 C-3.34 3.01 -2.68 2.02 -2 1 C-1.67 1.33 -1.34 1.66 -1 2 C-0.67 1.34 -0.34 0.68 0 0 Z " fill="#222222" transform="translate(178,119)"/>
<path d="M0 0 C0.33 0.99 0.66 1.98 1 3 C0.01 3.66 -0.98 4.32 -2 5 C-1.34 3.35 -0.68 1.7 0 0 Z M-4 6 C-3.34 6.66 -2.68 7.32 -2 8 C-2.99 8.33 -3.98 8.66 -5 9 C-5 9.66 -5 10.32 -5 11 C-6.32 11.33 -7.64 11.66 -9 12 C-7.35 10.02 -5.7 8.04 -4 6 Z " fill="#E7E7E7" transform="translate(348,204)"/>
<path d="M0 0 C0 0.99 0 1.98 0 3 C-2.3431213 2.74438677 -4.67843403 2.40729228 -7 2 C-7.33 1.34 -7.66 0.68 -8 0 C-4.71023192 -1.09658936 -3.28696233 -0.79953138 0 0 Z " fill="#151515" transform="translate(234,155)"/>
<path d="M0 0 C2.4375 0.375 2.4375 0.375 5 1 C5.33 1.66 5.66 2.32 6 3 C5.34 3 4.68 3 4 3 C4 3.66 4 4.32 4 5 C2.68 4.34 1.36 3.68 0 3 C0 2.01 0 1.02 0 0 Z " fill="#090909" transform="translate(172,333)"/>
<path d="M0 0 C0.66 0 1.32 0 2 0 C1.34 2.31 0.68 4.62 0 7 C-0.99 6.34 -1.98 5.68 -3 5 C-1.125 1.125 -1.125 1.125 0 0 Z " fill="#121212" transform="translate(138,223)"/>
<path d="M0 0 C1.98 0.495 1.98 0.495 4 1 C4 1.99 4 2.98 4 4 C3.01 4.33 2.02 4.66 1 5 C0.34 4.01 -0.32 3.02 -1 2 C-0.67 1.34 -0.34 0.68 0 0 Z " fill="#121212" transform="translate(176,336)"/>
<path d="M0 0 C1.98 0 3.96 0 6 0 C5.01 0.495 5.01 0.495 4 1 C4 1.99 4 2.98 4 4 C2.68 4 1.36 4 0 4 C0 2.68 0 1.36 0 0 Z " fill="#373737" transform="translate(257,233)"/>
<path d="M0 0 C-0.33 1.98 -0.66 3.96 -1 6 C-1.99 5.67 -2.98 5.34 -4 5 C-4 3.68 -4 2.36 -4 1 C-2 0 -2 0 0 0 Z " fill="#131313" transform="translate(177,125)"/>
</svg>
