<?xml version="1.0" encoding="UTF-8"?>
<svg version="1.1" xmlns="http://www.w3.org/2000/svg" width="2560" height="2560">
<path d="M0 0 C844.8 0 1689.6 0 2560 0 C2560 844.8 2560 1689.6 2560 2560 C1715.2 2560 870.4 2560 0 2560 C0 1715.2 0 870.4 0 0 Z " fill="#FEFEFE" transform="translate(0,0)"/>
<path d="M0 0 C2.37996896 2.13989167 3.57060749 3.90885965 4.65625 6.91015625 C4.95112305 7.718479 5.24599609 8.52680176 5.54980469 9.35961914 C5.86336914 10.25156982 6.17693359 11.14352051 6.5 12.0625 C7.00515137 13.47486938 7.00515137 13.47486938 7.52050781 14.91577148 C13.38381172 31.52364554 18.76170314 48.33492211 23.890625 65.18359375 C26.7922614 74.66525546 29.91615905 84.07643805 33 93.5 C34.23045156 97.25999823 35.45940514 101.02048145 36.6875 104.78125 C37.09705933 106.03029114 37.09705933 106.03029114 37.51489258 107.30456543 C39.40366508 113.08910927 41.20420047 118.89786207 42.98666382 124.7159729 C44.57194766 129.85357204 46.21635172 134.97173577 47.86328125 140.08984375 C48.21835251 141.19566299 48.57342377 142.30148224 48.93925476 143.44081116 C50.06292801 146.93994626 51.18764846 150.43874352 52.3125 153.9375 C60.85676188 180.52733271 60.85676188 180.52733271 64.79296875 192.87890625 C65.05982986 193.71493881 65.32669098 194.55097137 65.60163879 195.41233826 C67.43136173 201.16202378 69.21014958 206.92650955 70.98072815 212.69465637 C72.59532098 217.93053542 74.24676418 223.15462926 75.8984375 228.37890625 C76.63286829 230.7063626 77.36724145 233.03383714 78.1015625 235.36132812 C79.23505424 238.95242716 80.36896069 242.54339336 81.50390625 246.1340332 C85.90260013 260.05333216 90.24727827 273.98372516 94.39971924 287.97860718 C98.0683425 300.33237429 101.82281479 312.6486212 105.94140625 324.86035156 C108.08045535 331.2056222 110.06816031 337.58853204 112 344 C112.5257003 345.71364643 113.05177226 347.42717886 113.578125 349.140625 C114.13568918 350.9686669 114.69298059 352.79679203 115.25 354.625 C115.52070312 355.50333496 115.79140625 356.38166992 116.0703125 357.28662109 C116.32039063 358.11242676 116.57046875 358.93823242 116.828125 359.7890625 C117.0540332 360.52850098 117.27994141 361.26793945 117.51269531 362.02978516 C118 364 118 364 118 367 C119.31315186 366.9532312 119.31315186 366.9532312 120.65283203 366.90551758 C130.19304752 366.71756072 139.18744818 367.65031297 148.57861328 369.28881836 C150.86370554 369.68553914 153.15182629 370.05790177 155.44140625 370.42773438 C165.90148585 372.16964468 175.90000448 374.79498669 186 378 C187.16853516 378.36246826 188.33707031 378.72493652 189.54101562 379.09838867 C203.54987135 383.49314213 217.12065197 388.40015914 230.36439514 394.74913025 C233.49694255 396.23585114 236.64430137 397.68869446 239.79345703 399.13989258 C240.95765167 399.67657059 242.12184631 400.2132486 243.32131958 400.76618958 C244.20528412 401.17334702 245.08924866 401.58050446 246 402 C245.94100017 367.54477582 245.86635963 333.08962401 245.77101372 298.63448147 C245.75974681 294.55816048 245.74860815 290.48183914 245.73754883 286.40551758 C245.7342433 285.18833668 245.7342433 285.18833668 245.730871 283.94656626 C245.695588 270.84206299 245.67067323 257.73755977 245.64965298 244.63302674 C245.62781897 231.16653948 245.59469713 217.70011335 245.55129844 204.23367816 C245.52491198 195.93755921 245.50712113 187.6415163 245.50065396 179.34535751 C245.49535995 173.64091387 245.47901036 167.93656555 245.45433434 162.23217317 C245.4404551 158.95085688 245.43274768 155.66974152 245.43499184 152.38839149 C245.44847103 123.56358969 243.18409917 92.119299 224 69 C223.48050781 68.36707031 222.96101563 67.73414063 222.42578125 67.08203125 C207.63167271 50.79733243 183.23511983 43.65717506 161.95996094 42.50244141 C154.51590761 42.23691541 147.07303573 42.20333463 139.625 42.1875 C137.02732333 42.16429197 134.42966512 42.13891391 131.83203125 42.11132812 C125.55461824 42.04928562 119.27769151 42.01631317 113 42 C113 37.05 113 32.1 113 27 C169.00124789 26.93141019 225.00249039 26.87839278 281.00377214 26.84680401 C287.63068865 26.84305235 294.25760509 26.83916934 300.88452148 26.83520508 C302.86328656 26.83402468 302.86328656 26.83402468 304.88202668 26.83282044 C326.17988385 26.81991653 347.47771519 26.79616971 368.77555888 26.76854161 C390.66518691 26.74038484 412.55480218 26.72380214 434.44444758 26.71773452 C447.92737277 26.71363927 461.41022854 26.70075385 474.89313234 26.6762506 C484.16670971 26.66026627 493.44025174 26.65562801 502.71384185 26.65949587 C508.04645416 26.66139789 513.37894608 26.65869864 518.71153641 26.64238358 C542.66848169 26.5726956 566.18599247 27.29493201 590 30 C591.77879336 30.190004 593.55774357 30.37855092 595.33691311 30.56499958 C599.06401816 30.95663816 602.7822148 31.40199736 606.5 31.875 C607.14591095 31.95714752 607.7918219 32.03929504 608.45730591 32.12393188 C656.06461553 38.24367156 703.32429352 52.76448117 745.91113281 74.92529297 C748.19710531 76.10140925 750.49988753 77.2401549 752.8046875 78.37890625 C786.29958108 95.15186324 816.8643508 118.76777213 843.375 145.125 C844.29015381 146.03088867 845.20530762 146.93677734 846.14819336 147.87011719 C851.42229544 153.16865194 856.31829475 158.63313328 860.98364258 164.47558594 C863.05060078 167.06335054 865.17458244 169.59571922 867.3125 172.125 C897.13439607 208.71755185 920.45529631 254.04878489 931.08203125 300.12890625 C931.70669765 302.76313773 932.36654354 305.31442722 933.13671875 307.90234375 C936.34307262 318.85183732 938.33464168 329.9456522 940.1875 341.1875 C940.31396912 341.93776459 940.44043823 342.68802917 940.57073975 343.46102905 C944.28354634 365.66305515 945.38567411 387.82579531 945.3125 410.3125 C945.31067719 411.48399597 945.30885437 412.65549194 945.30697632 413.86248779 C945.22990979 443.44247866 943.03241653 471.98140117 937 501 C936.78504883 502.06943848 936.57009766 503.13887695 936.34863281 504.24072266 C925.0950868 559.64214838 900.2590107 614.60131956 865.42041016 659.17822266 C864.00979628 660.98743557 862.61865471 662.81026194 861.23046875 664.63671875 C855.33343486 672.33956809 849.00957232 679.50033497 842.35205078 686.55078125 C840.46069318 688.57806523 838.64014177 690.66529108 836.8125 692.75 C826.68559857 704.02055879 815.94451594 714.67143176 804 724 C802.82250595 724.97423211 801.64825275 725.95238918 800.4765625 726.93359375 C782.25008998 742.14514359 762.73631436 754.48596127 742 766 C741.19433594 766.45246094 740.38867188 766.90492188 739.55859375 767.37109375 C702.06942458 788.3623459 660.34689949 800.85431107 618.24829102 808.40576172 C615.36145931 808.93387509 612.48756263 809.50183291 609.61328125 810.09375 C605.35720641 810.95597206 601.12247309 811.58891253 596.8125 812.125 C596.15314453 812.21136719 595.49378906 812.29773437 594.81445312 812.38671875 C590.5194986 812.91988552 586.32512508 813.07853664 582 813 C583.16151253 815.66900751 584.32918063 818.33507531 585.5 821 C585.81453125 821.72445312 586.1290625 822.44890625 586.453125 823.1953125 C589.37756016 829.83153075 592.61775108 836.29410579 595.87646484 842.77001953 C605.73495516 862.36928181 615.18233386 882.16328938 624.19580078 902.16430664 C624.816655 903.54186403 625.43758692 904.9193864 626.05859375 906.296875 C626.37092957 906.98970078 626.68326538 907.68252655 627.00506592 908.39634705 C631.08170771 917.42033905 635.26447137 926.39529889 639.4375 935.375 C645.43858223 948.29327184 651.40352859 961.22683735 657.3125 974.1875 C663.83742136 988.49056727 670.42555973 1002.76217372 677.11572266 1016.98876953 C678.40580029 1019.73270799 679.69147019 1022.47865652 680.97412109 1025.22607422 C691.1548923 1047.02178723 701.70753445 1068.62582614 712.45132446 1090.14852142 C713.42136836 1092.0926692 714.39003602 1094.03749715 715.35839844 1095.98248291 C722.8339982 1110.98937396 730.50419823 1125.86261538 738.6365509 1140.52682495 C740.63839595 1144.15799331 742.60441622 1147.8082572 744.57200623 1151.45806885 C750.8823359 1163.16313811 757.54266141 1174.65074068 764.30029297 1186.10205078 C765.88659302 1188.80664451 767.44934753 1191.52316685 769.00390625 1194.24609375 C783.5929533 1219.63022125 800.13929204 1244.732792 817.9375 1268 C818.94945726 1269.33445458 819.96116883 1270.66909551 820.97265625 1272.00390625 C821.4742627 1272.66406738 821.97586914 1273.32422852 822.49267578 1274.00439453 C823.98620781 1275.98173998 825.46249082 1277.97076939 826.93359375 1279.96484375 C833.81661491 1289.2761563 841.04099627 1298.24906444 848.45898438 1307.13867188 C850.48559089 1309.58652487 852.45776855 1312.07667178 854.4375 1314.5625 C858.87221741 1320.00397314 863.67336285 1325.08520279 868.50952148 1330.16821289 C872.2386337 1334.0900824 875.8450012 1338.08993201 879.39257812 1342.17651367 C884.77817777 1348.28602822 890.71482569 1353.89732152 896.90625 1359.1796875 C899.30879136 1361.26846413 901.61410683 1363.44856844 903.9375 1365.625 C967.40369642 1423.4575812 1048.91535655 1439.74822716 1132 1444 C1132 1449.28 1132 1454.56 1132 1460 C1121.20927457 1460.04579506 1110.41861717 1460.08222103 1099.62781525 1460.10362434 C1094.61333002 1460.11391408 1089.59891658 1460.12778956 1084.58447266 1460.15087891 C1006.42736936 1460.50092848 930.25274671 1450.29642955 859 1416 C858.03964844 1415.53835449 857.07929687 1415.07670898 856.08984375 1414.60107422 C837.53798473 1405.62427271 819.96226964 1395.6957585 803 1384 C802.319375 1383.53335937 801.63875 1383.06671875 800.9375 1382.5859375 C791.18879636 1375.88370375 781.80081603 1368.85027052 772.65332031 1361.34912109 C771.16227767 1360.13241973 769.65621767 1358.93417813 768.1484375 1357.73828125 C755.77335297 1347.8637669 744.57911545 1336.67958943 733.36013794 1325.53536987 C732.21978832 1324.40308295 731.07796441 1323.27227853 729.93453979 1322.14309692 C723.5665937 1315.84612049 717.54973336 1309.4752201 711.96191406 1302.45874023 C709.2691043 1299.0840156 706.41877066 1295.86098504 703.5625 1292.625 C698.25114441 1286.53944158 693.20162756 1280.31882287 688.37353516 1273.84179688 C687.39759924 1272.53314764 686.41768746 1271.2274593 685.43505859 1269.92382812 C663.44424815 1240.73964198 644.40788623 1209.71750072 627.0390625 1177.6015625 C625.03498955 1173.89628293 623.0089562 1170.20460295 620.9609375 1166.5234375 C614.39373963 1154.69061036 608.3034951 1142.71161525 602.59912109 1130.43994141 C601.47092088 1128.01301912 600.33887529 1125.58821129 599.20166016 1123.16552734 C590.1301017 1103.82565257 581.46546268 1084.32711858 573.0625 1064.6875 C572.63205383 1063.68148743 572.20160767 1062.67547485 571.75811768 1061.63897705 C563.53246451 1042.38961793 555.42851866 1023.08684578 547.5625 1003.6875 C546.63681077 1001.40881678 545.71102673 999.13017208 544.78515625 996.8515625 C544.09510498 995.15241699 544.09510498 995.15241699 543.39111328 993.41894531 C542.01428443 990.0351069 540.63123847 986.6538795 539.24609375 983.2734375 C534.83068848 972.49016752 530.46756158 961.69057573 526.23046875 950.8359375 C521.46600187 938.67154661 516.62872948 926.53698733 511.76953125 914.41015625 C511.22660494 913.05487792 511.22660494 913.05487792 510.67271042 911.67222023 C507.29244884 903.23465934 503.91000661 894.79797359 500.52563477 886.36206055 C498.65052128 881.687857 496.7771974 877.01293925 494.90488243 872.33761406 C494.20602905 870.59352273 493.50652873 868.84969045 492.80628395 867.1061573 C488.67048836 856.80819959 484.62366665 846.48233284 480.70946217 836.09784794 C478.5433338 830.36335842 476.25756227 824.70406587 473.8125 819.08203125 C473 817 473 817 473 815 C440.99 815 408.98 815 376 815 C376 810.38 376 805.76 376 801 C405.7 801 435.4 801 466 801 C457.20640858 778.13666231 448.42064155 755.30914861 439.21825027 732.61359406 C438.41394753 730.62939657 437.61062955 728.64480291 436.80758667 726.66009521 C434.14063116 720.06896785 431.4706198 713.47909312 428.79589844 706.89111328 C426.79987016 701.97426212 424.81051786 697.05479149 422.8266449 692.13302612 C408.97348893 657.79650808 394.08022698 623.6005954 376.62109375 590.93359375 C374.76754599 587.46301682 372.95292209 583.97501526 371.16015625 580.47265625 C346.61936265 532.61546469 315.37704883 483.06321249 272 450 C270.81238918 449.07175635 269.62489715 448.14336071 268.4375 447.21484375 C258.38867632 439.44026761 247.8871549 432.53997108 237 426 C235.90631104 425.33871094 235.90631104 425.33871094 234.79052734 424.6640625 C222.09942355 417.06838941 208.7517604 411.39085282 195 406 C194.30390625 405.72285156 193.6078125 405.44570313 192.890625 405.16015625 C172.58766236 397.13441247 148.8465684 391.69518 127 392 C127.39940796 393.34856079 127.39940796 393.34856079 127.80688477 394.72436523 C129.06063091 398.96152538 130.31218554 403.19932616 131.5625 407.4375 C131.90371887 408.59354736 131.90371887 408.59354736 132.25183105 409.77294922 C135.1676956 419.66005839 138.01543164 429.5609109 140.75 439.5 C142.85334607 447.12849928 145.14779161 454.6387346 147.73144531 462.1171875 C150.23646454 469.46966778 152.27947345 476.94417318 154.2890625 484.4453125 C155.95562405 490.5776118 157.83638899 496.60345615 159.87109375 502.62109375 C162.99801798 511.87000709 165.81007054 521.19638978 168.5625 530.5625 C169.02250408 532.11922409 169.4827904 533.67586481 169.94335938 535.23242188 C171.29982984 539.82036522 172.65068576 544.40994759 174 549 C174.21758972 549.74006287 174.43517944 550.48012573 174.65936279 551.24261475 C175.09142766 552.7121525 175.52349048 554.18169087 175.95555115 555.65122986 C176.16486771 556.36315994 176.37418427 557.07509003 176.58984375 557.80859375 C176.7963002 558.51089615 177.00275665 559.21319855 177.21546936 559.93678284 C179.13399332 566.46072033 181.06547014 572.98079164 183 579.5 C183.64601811 581.67702851 184.29184839 583.85411277 184.9375 586.03125 C185.43443359 587.70670898 185.43443359 587.70670898 185.94140625 589.41601562 C186.68220969 591.92408632 187.41956911 594.43295035 188.15234375 596.94335938 C191.3323963 607.82783535 194.64643472 618.66785664 198 629.5 C203.71051361 647.94517608 203.71051361 647.94517608 206.35546875 657.00390625 C209.55315629 667.95457121 212.88346242 678.8651814 216.20092773 689.7800293 C217.30088956 693.3992975 218.39956031 697.01895567 219.49804688 700.63867188 C223.69177825 714.4503121 227.91307227 728.25322015 232.16479492 742.04711914 C232.46295105 743.01462601 232.76110718 743.98213287 233.06829834 744.97895813 C233.72619318 747.11218161 234.38501398 749.24511963 235.04449463 751.37785339 C236.79429173 757.04516839 238.52355569 762.71358768 240.1484375 768.41796875 C240.51098633 769.68302246 240.87353516 770.94807617 241.24707031 772.25146484 C241.52339294 773.21641876 241.52339294 773.21641876 241.80529785 774.2008667 C246.06706664 789.18679977 246.06706664 789.18679977 251.00512695 803.95947266 C252.26818833 807.49230337 253.18749085 810.82611853 253.73828125 814.54296875 C255.00719131 822.48842561 255.00719131 822.48842561 259.98144531 828.48046875 C265.16252205 831.32397687 270.68662471 833.20591252 276.28125 835.06445312 C280.19639925 836.41169198 283.92745546 838.08682093 287.6875 839.8125 C289.15594303 840.47203804 290.62470496 841.13086645 292.09375 841.7890625 C292.86847656 842.1387207 293.64320313 842.48837891 294.44140625 842.84863281 C296.27274717 843.67273623 298.10634508 844.49183136 299.94140625 845.30761719 C314.85228778 851.94545385 329.22844166 859.12011597 343.29345703 867.40625 C345.93618061 868.9624199 348.59010773 870.49785608 351.24609375 872.03125 C362.68169392 878.6952788 373.40628314 886.07643698 384 894 C385.13342682 894.83556915 386.26748759 895.67027943 387.40234375 896.50390625 C397.88699216 904.26281595 407.78621928 912.53986312 417.31982422 921.4375 C419.15474447 923.14390651 421.00074728 924.83783011 422.84765625 926.53125 C429.25697763 932.42744674 435.44346907 938.28075886 441 945 C441.85335938 945.96550781 442.70671875 946.93101562 443.5859375 947.92578125 C461.20970065 967.88379807 475.72630589 989.87838511 487 1014 C487.43771729 1014.91749023 487.43771729 1014.91749023 487.88427734 1015.85351562 C496.95816415 1034.98088525 502.92013509 1055.27017332 507 1076 C507.18546387 1076.92635254 507.37092773 1077.85270508 507.56201172 1078.80712891 C513.99049808 1111.43239898 515.83929236 1146.51002256 511.31201172 1179.55273438 C510.9528953 1182.36946595 510.67930545 1185.18889549 510.41015625 1188.015625 C508.13966583 1211.10213885 503.51331435 1233.3878834 495 1255 C494.70399902 1255.76650879 494.40799805 1256.53301758 494.10302734 1257.32275391 C482.79900119 1286.36145967 466.47316711 1312.94476303 447.70849609 1337.71777344 C444.8033319 1341.59852149 442.00370173 1345.55451086 439.1875 1349.5 C434.89089911 1355.49479048 430.46421597 1361.29381447 425.70703125 1366.93359375 C422.70855768 1370.36250838 422.70855768 1370.36250838 422.1484375 1374.69921875 C423.18164556 1378.70408484 424.74932163 1382.14020655 426.625 1385.8125 C426.98255371 1386.51882568 427.34010742 1387.22515137 427.70849609 1387.95288086 C430.58475623 1393.48977702 433.9068855 1398.28552113 438 1403 C438.42152344 1403.57492187 438.84304688 1404.14984375 439.27734375 1404.7421875 C454.57569626 1424.92299294 485.4026025 1433.67511346 509.078125 1437.4921875 C519.09145121 1438.78873372 529.04057869 1439.27877432 539.125 1439.5625 C540.57292622 1439.60580156 542.02084302 1439.64941906 543.46875 1439.69335938 C546.97906603 1439.79979344 550.48948004 1439.89976037 554 1440 C554 1444.62 554 1449.24 554 1454 C552.80014371 1454.00331015 551.60028742 1454.00662029 550.36407185 1454.01003075 C521.7498487 1454.08940058 493.13566789 1454.17875001 464.52151423 1454.28005161 C460.98382549 1454.29256741 457.44613647 1454.30500066 453.90844727 1454.31738281 C453.20428795 1454.31984881 452.50012864 1454.3223148 451.77463116 1454.32485552 C440.43901464 1454.36435739 429.10338842 1454.39720341 417.76774398 1454.42749982 C406.09793724 1454.45884088 394.42817085 1454.49754278 382.75840968 1454.54279006 C376.21987582 1454.56783386 369.68136965 1454.58967779 363.14280128 1454.60334396 C326.38779804 1454.59067936 326.38779804 1454.59067936 289.71428871 1456.75674438 C285.65875399 1457.12020299 281.59811817 1457.39396001 277.53588867 1457.67016602 C276.17460814 1457.76718232 274.81337495 1457.8648655 273.45219421 1457.96327209 C270.61784837 1458.16749255 267.78347007 1458.37124718 264.9490509 1458.57444763 C258.80639021 1459.01490188 252.663795 1459.45626447 246.52124023 1459.89819336 C242.69472472 1460.17345259 238.8681572 1460.44797951 235.04155922 1460.72208977 C233.61735367 1460.82425338 232.19316721 1460.92668372 230.76900291 1461.02942085 C226.17984095 1461.36045943 221.59008019 1461.6819708 217 1462 C215.69242737 1462.09439865 214.38485474 1462.1887973 213.03765869 1462.28605652 C203.50496713 1462.95170294 194.01506653 1463.16312474 184.4609375 1463.16796875 C182.9222511 1463.17119914 181.38356498 1463.17456438 179.84487915 1463.17805481 C176.64316092 1463.18398347 173.44146941 1463.18590129 170.23974609 1463.18530273 C167.00726712 1463.18522163 163.77493032 1463.19215046 160.54248047 1463.20581055 C142.6126659 1463.28030852 124.81928274 1463.28130369 107 1461 C106.2851947 1460.91076263 105.5703894 1460.82152527 104.83392334 1460.72958374 C100.29217055 1460.15116235 95.77101536 1459.47485264 91.25 1458.75 C90.24084534 1458.58843918 90.24084534 1458.58843918 89.21130371 1458.4236145 C54.3749164 1452.80243164 20.57296231 1442.91397029 -11 1427 C-11.96679688 1426.52062988 -12.93359375 1426.04125977 -13.9296875 1425.54736328 C-27.48781727 1418.80165993 -40.38256297 1411.36197417 -53 1403 C-53.5943988 1402.60647339 -54.18879761 1402.21294678 -54.8012085 1401.80749512 C-67.12066673 1393.6491233 -79.40036203 1385.43138619 -91.66796875 1377.1953125 C-95.76676042 1374.44532582 -99.87656091 1371.71287882 -104 1369 C-105.08667969 1368.28199219 -106.17335938 1367.56398438 -107.29296875 1366.82421875 C-122.10007798 1357.35134763 -138.03299659 1348.44803293 -156 1350 C-172.97293422 1353.81468507 -185.68247742 1369.75493058 -194.8828125 1383.5390625 C-199.77241571 1391.3454281 -203.68261827 1399.68065078 -207.13671875 1408.20703125 C-207.66736938 1409.51196533 -207.66736938 1409.51196533 -208.20874023 1410.84326172 C-208.89203747 1412.54565713 -209.56008833 1414.25426809 -210.21118164 1415.96923828 C-210.51789795 1416.74122559 -210.82461426 1417.51321289 -211.140625 1418.30859375 C-211.40391602 1418.99751709 -211.66720703 1419.68644043 -211.93847656 1420.39624023 C-213 1422 -213 1422 -215.05371094 1422.79321289 C-216.01712402 1422.89557251 -216.01712402 1422.89557251 -217 1423 C-218.79124726 1421.20875274 -218.12549059 1418.53524126 -218.12584114 1416.11693573 C-218.12975276 1414.18681475 -218.12975276 1414.18681475 -218.13374341 1412.21770144 C-218.13158088 1410.77107002 -218.1293242 1409.32443875 -218.12698364 1407.87780762 C-218.12813447 1406.35560554 -218.12972174 1404.83340374 -218.13171089 1403.31120253 C-218.13590945 1399.10820429 -218.13381116 1394.90522857 -218.13072467 1390.70223022 C-218.12847292 1386.1773041 -218.13194905 1381.652382 -218.13470459 1377.12745667 C-218.13916371 1368.25518851 -218.13818519 1359.38292879 -218.13529195 1350.51066029 C-218.13303847 1343.30340641 -218.13272515 1336.09615489 -218.13381577 1328.88890076 C-218.133969 1327.86521667 -218.13412223 1326.84153259 -218.13428011 1325.78682777 C-218.13459982 1323.70758204 -218.13492403 1321.6283363 -218.1352527 1319.54909056 C-218.13810791 1300.02743891 -218.13481983 1280.50579194 -218.12945233 1260.98414105 C-218.12498426 1244.21419715 -218.12576018 1227.44426018 -218.13037109 1210.67431641 C-218.13571614 1191.22506932 -218.13783321 1171.77582634 -218.13475883 1152.32657862 C-218.13444026 1150.25475216 -218.13412589 1148.1829257 -218.13381577 1146.11109924 C-218.13366149 1145.09157825 -218.13350721 1144.07205727 -218.13334826 1143.0216417 C-218.1324829 1135.81858024 -218.1339464 1128.61552138 -218.13629532 1121.41246033 C-218.13909275 1112.64074863 -218.13835627 1103.86904588 -218.13301457 1095.09733522 C-218.13037678 1090.61730988 -218.1293738 1086.13729949 -218.13266373 1081.65727425 C-218.1356251 1077.56288224 -218.13403655 1073.46851918 -218.12868617 1069.37412983 C-218.1275613 1067.88626511 -218.1281547 1066.39839799 -218.13056196 1064.9105348 C-218.13356539 1062.90137958 -218.12991293 1060.8922176 -218.12584114 1058.88306427 C-218.12567879 1057.76305165 -218.12551644 1056.64303903 -218.12534916 1055.48908663 C-218 1053 -218 1053 -217 1052 C-215.1875 1051.8671875 -215.1875 1051.8671875 -213 1051.875 C-212.278125 1051.87242188 -211.55625 1051.86984375 -210.8125 1051.8671875 C-209 1052 -209 1052 -208 1053 C-207.74842725 1054.5673756 -207.5553032 1056.14419675 -207.38671875 1057.72265625 C-207.27553711 1058.72329102 -207.16435547 1059.72392578 -207.04980469 1060.75488281 C-206.87046387 1062.39215332 -206.87046387 1062.39215332 -206.6875 1064.0625 C-200.73296075 1115.31250242 -186.51695185 1165.69907038 -166 1213 C-165.62762207 1213.86189941 -165.25524414 1214.72379883 -164.87158203 1215.61181641 C-146.48894452 1257.93732291 -122.84558639 1298.48635084 -92 1333 C-90.81470703 1334.33417969 -90.81470703 1334.33417969 -89.60546875 1335.6953125 C-87.41599404 1338.1416958 -85.20900378 1340.57125238 -83 1343 C-82.09705407 1344.00727302 -81.19473753 1345.0151105 -80.29296875 1346.0234375 C-79.38288438 1347.03652291 -78.47272954 1348.04954502 -77.5625 1349.0625 C-76.73878906 1349.98160156 -75.91507813 1350.90070313 -75.06640625 1351.84765625 C-73.18668602 1354.04644166 -73.18668602 1354.04644166 -71 1355 C-71 1355.66 -71 1356.32 -71 1357 C-70.34 1357 -69.68 1357 -69 1357 C-69 1357.66 -69 1358.32 -69 1359 C-68.40316406 1359.26683594 -67.80632813 1359.53367187 -67.19140625 1359.80859375 C-64.95425676 1361.02486932 -63.65579933 1362.20357259 -61.9375 1364.0625 C-17.64707552 1409.37429695 46.42297025 1433.9068397 108 1442 C109.21107422 1442.16371094 110.42214844 1442.32742188 111.66992188 1442.49609375 C143.62924284 1446.66095949 176.98751395 1446.74462647 209 1443 C210.13244141 1442.87109375 211.26488281 1442.7421875 212.43164062 1442.609375 C238.6532777 1439.52279538 273.24970333 1435.01802982 291.28125 1413.40234375 C296.16410071 1406.57745014 300.05182911 1398.37550951 301 1390 C301.07734375 1389.360625 301.1546875 1388.72125 301.234375 1388.0625 C302.13398877 1373.66867975 295.21715654 1358.40263994 290.9163208 1344.88192749 C289.21610923 1339.53457921 287.52250109 1334.18513712 285.828125 1328.8359375 C285.46062637 1327.67577621 285.09312775 1326.51561493 284.7144928 1325.32029724 C277.35673149 1302.08617289 270.06682368 1278.83754264 263.05615234 1255.49609375 C260.2131108 1246.08500848 257.27149326 1236.70397028 254.34570312 1227.31835938 C252.476094 1221.32023579 250.61043093 1215.32088433 248.74432373 1209.32167053 C247.22038525 1204.42253174 245.69610661 1199.52349954 244.17089844 1194.62475586 C241.54378105 1186.18578262 238.91820614 1177.74639379 236.3125 1169.30078125 C235.54189048 1166.80461828 234.77098616 1164.3085467 234 1161.8125 C233.64180176 1160.65266602 233.28360352 1159.49283203 232.91455078 1158.29785156 C230.98649263 1152.08390172 228.98031674 1145.90589279 226.875 1139.75 C224.10000146 1131.62821671 221.81994037 1123.38348891 219.53686523 1115.11206055 C216.8280151 1105.31078438 213.90793994 1095.6082388 210.640625 1085.9765625 C207.16645402 1075.73042145 204.01336465 1065.41619443 200.96386719 1055.03540039 C196.75597059 1040.72674342 192.20197363 1026.55448306 187.46679688 1012.41259766 C184.06714756 1002.24204321 180.99162081 992.00222245 178.0625 981.6875 C175.21255817 971.44325042 175.21255817 971.44325042 171.97607422 961.31811523 C170.58314032 957.25496679 169.70496863 953.34519761 169.03515625 949.09765625 C167.74573509 942.41963249 166.39570372 936.34940475 162 931 C153.42688489 925.39918252 143.42470809 922.75096751 133.63574219 920.04541016 C129.83343318 918.95210589 126.25900999 917.61538939 122.61669922 916.0859375 C119.3653774 914.73662984 116.07572407 913.49664483 112.78125 912.2578125 C84.73904106 901.66628026 57.01220228 890.41696918 29.64404297 878.18017578 C27.22562636 877.10070894 24.80348215 876.03038801 22.37890625 874.96484375 C17.90941123 872.99828599 13.45167248 871.00656159 9 869 C8.0723584 868.58202148 7.1447168 868.16404297 6.18896484 867.73339844 C-16.47986286 857.48168033 -39.37169021 846.97113157 -60.80810547 834.29492188 C-62.46495559 833.31609218 -64.1262205 832.3447301 -65.78955078 831.37695312 C-79.72929399 823.26030796 -93.18924093 814.81324574 -106 805 C-107.40185547 803.92878906 -107.40185547 803.92878906 -108.83203125 802.8359375 C-111.25819329 800.93106714 -113.63376854 798.97875636 -116 797 C-116.49322754 796.59555664 -116.98645508 796.19111328 -117.49462891 795.77441406 C-131.5341751 784.2463161 -145.09257517 771.5750703 -156 757 C-156.48388184 756.3601416 -156.96776367 755.7202832 -157.46630859 755.06103516 C-182.29080832 722.09488353 -203.32733988 680.66834082 -203.09765625 638.47265625 C-203.09553383 636.98928017 -203.09553383 636.98928017 -203.09336853 635.47593689 C-203.08780088 632.33809296 -203.0752544 629.20032213 -203.0625 626.0625 C-203.05748082 623.92643333 -203.05291864 621.79036553 -203.04882812 619.65429688 C-203.03784206 614.43617325 -203.02113636 609.21809185 -203 604 C-213.5879867 629.97948274 -223.61578482 656.12676347 -233.24275208 682.47717285 C-235.37041457 688.29724378 -237.52886752 694.10478817 -239.71194458 699.90426636 C-243.18212491 709.12932496 -246.58577526 718.37912508 -250 727.625 C-250.75958383 729.68099662 -251.51918703 731.73698607 -252.27880859 733.79296875 C-255.66198848 742.95137286 -259.04279225 752.11064202 -262.4140625 761.2734375 C-262.68000717 761.9962088 -262.94595184 762.7189801 -263.21995544 763.46365356 C-263.48470169 764.18318207 -263.74944794 764.90271057 -264.0222168 765.64404297 C-264.55647184 767.09603086 -265.09073294 768.54801653 -265.625 770 C-265.89220856 770.72624573 -266.15941711 771.45249146 -266.4347229 772.20074463 C-270.47228992 783.17129516 -274.53045975 794.13415355 -278.59765625 805.09375 C-278.84627159 805.76371002 -279.09488693 806.43367004 -279.35103607 807.12393188 C-281.85178835 813.86262001 -284.35332181 820.60101707 -286.85678291 827.33869934 C-292.03351746 841.27213727 -297.18702397 855.21363062 -302.29756355 869.17149353 C-306.63906506 881.02851899 -311.01471958 892.87262838 -315.40548706 904.71148682 C-317.1163744 909.32502998 -318.825652 913.93916912 -320.53507996 918.55325317 C-323.47525351 926.48923801 -326.41604345 934.42499423 -329.35791016 942.36035156 C-336.71370988 962.20396163 -344.05340071 982.05166965 -351.21206665 1001.96737671 C-355.57854018 1014.11413703 -360.02080293 1026.23190162 -364.48471069 1038.34317017 C-371.44860674 1057.24064747 -378.32941859 1076.16631762 -385.125 1095.125 C-385.51455872 1096.21086395 -385.90411743 1097.29672791 -386.30548096 1098.41549683 C-390.65019205 1110.5318292 -394.93939401 1122.66544643 -399.15385437 1134.82769775 C-401.91166634 1142.77534761 -404.75072784 1150.69168741 -407.61514282 1158.60140991 C-425.676224 1208.5077223 -425.676224 1208.5077223 -442 1259 C-442.30550781 1259.99547852 -442.61101562 1260.99095703 -442.92578125 1262.01660156 C-446.90048079 1275.10351122 -450.05105978 1288.30058944 -452.8125 1301.6875 C-452.95979553 1302.39916321 -453.10709106 1303.11082642 -453.2588501 1303.84405518 C-456.05614348 1317.45833814 -458.38484365 1330.86932624 -458.3125 1344.8125 C-458.30831055 1345.93543457 -458.30412109 1347.05836914 -458.29980469 1348.21533203 C-457.98526951 1371.55451122 -451.81544304 1392.15510785 -435 1409 C-434.39800781 1409.61359375 -433.79601562 1410.2271875 -433.17578125 1410.859375 C-407.67880503 1434.97365186 -369.51272907 1438.50350915 -336.25 1439.5625 C-334.96867187 1439.60568359 -333.68734375 1439.64886719 -332.3671875 1439.69335938 C-329.24487921 1439.79821301 -326.1224509 1439.89948274 -323 1440 C-323 1444.62 -323 1449.24 -323 1454 C-436.19 1454 -549.38 1454 -666 1454 C-666 1449.38 -666 1444.76 -666 1440 C-664.46214844 1439.96261719 -662.92429687 1439.92523437 -661.33984375 1439.88671875 C-626.00533707 1438.86322482 -591.92118735 1432.91221537 -562 1413 C-561.03964844 1412.36449219 -560.07929687 1411.72898437 -559.08984375 1411.07421875 C-522.64421858 1385.74582025 -500.63835916 1344.17900266 -482.36181641 1304.92236328 C-481.03617631 1302.07763184 -479.69646934 1299.23985927 -478.35546875 1296.40234375 C-459.76921108 1256.77329914 -445.1342945 1215.47397364 -430.08685303 1174.41654968 C-425.75513822 1162.59965731 -421.38681231 1150.79654839 -417 1139 C-416.72881348 1138.27067261 -416.45762695 1137.54134521 -416.17822266 1136.78991699 C-412.17236898 1126.01686623 -408.16375097 1115.24484507 -404.15402222 1104.47323608 C-401.76106116 1098.04483389 -399.36859131 1091.61624914 -396.9765625 1085.1875 C-396.64781631 1084.30398361 -396.31907013 1083.42046722 -395.98036194 1082.51017761 C-394.32427402 1078.05931908 -392.66829768 1073.60841906 -391.01245117 1069.1574707 C-387.9672727 1060.97230831 -384.92125937 1052.78746052 -381.8717041 1044.60392761 C-374.78608555 1025.58945431 -367.72055956 1006.56871454 -360.75 987.51171875 C-355.84292354 974.09773167 -350.89656042 960.69816381 -345.95361328 947.29736328 C-344.59973287 943.62671894 -343.2466412 939.95578497 -341.89404297 936.28466797 C-327.53308793 897.31013129 -327.53308793 897.31013129 -321.5625 881.6875 C-315.81431684 866.6433832 -310.29289231 851.51654429 -304.74975586 836.39599609 C-300.3981245 824.52607472 -296.03430691 812.66112207 -291.625 800.8125 C-291.11684472 799.44637686 -290.60870694 798.08024722 -290.10058594 796.71411133 C-289.30015653 794.56221306 -288.49970201 792.41032416 -287.69915771 790.25846863 C-276.7429864 760.80475532 -265.83053324 731.33556737 -255.0625 701.8125 C-248.32666266 683.34503244 -241.54042728 664.89792659 -234.67041016 646.47998047 C-232.81281182 641.49934624 -230.95901417 636.51729994 -229.10546875 631.53515625 C-228.77013626 630.63385986 -228.43480377 629.73256348 -228.08930969 628.80395508 C-226.71560785 625.11165936 -225.34199899 621.41932905 -223.96841431 617.72698975 C-222.94773686 614.98334138 -221.92700797 612.23971216 -220.90625 609.49609375 C-220.57360641 608.60196777 -220.24096283 607.7078418 -219.89823914 606.78662109 C-218.08773696 601.92081468 -216.27533764 597.05572287 -214.46063232 592.19148254 C-202.18773656 559.29124711 -190.19124531 526.29493934 -178.50177002 493.18283081 C-168.3012855 464.29318471 -157.87377019 435.48547184 -147.29125977 406.73364258 C-142.99273662 395.02994721 -138.77944775 383.29578691 -134.5625 371.5625 C-126.04725925 347.87161608 -117.45598749 324.20886884 -108.84197998 300.55374146 C-105.78343097 292.15415843 -102.72870096 283.75319306 -99.67578125 275.3515625 C-98.36153885 271.73514177 -97.04727455 268.118729 -95.73300171 264.50231934 C-94.87099624 262.13034735 -94.00903724 259.75835849 -93.14712524 257.38635254 C-88.97489667 245.90549666 -84.79778108 234.42680437 -80.56860352 222.96679688 C-74.84217497 207.44700685 -69.32593491 191.85547951 -63.81738281 176.25732422 C-58.44531098 161.05063611 -53.01650814 145.86497506 -47.5625 130.6875 C-41.14700229 112.83381062 -34.7974165 94.95816791 -28.5 77.0625 C-4.63657305 9.27314609 -4.63657305 9.27314609 0 0 Z " fill="#020202" transform="translate(1081,490)"/>
<path d="M0 0 C1.12614212 -0.00426498 2.25228424 -0.00852997 3.41255188 -0.01292419 C4.66000687 -0.01247101 5.90746185 -0.01201782 7.19271851 -0.0115509 C8.49881577 -0.01490952 9.80491302 -0.01826813 11.15058899 -0.02172852 C14.75374064 -0.0306053 18.35686855 -0.03290886 21.96003008 -0.0335443 C24.2241735 -0.03425559 26.48831092 -0.03639195 28.75245285 -0.03904152 C36.69201792 -0.04832437 44.63156617 -0.05237491 52.57113647 -0.05158997 C59.89654812 -0.05099633 67.22188441 -0.0613977 74.54727709 -0.07733363 C80.87809382 -0.09059932 87.20888663 -0.0957657 93.53971708 -0.09513456 C97.30052852 -0.09488398 101.06127382 -0.09747936 104.82207108 -0.10831261 C123.70194245 -0.15886828 142.39995883 0.44644445 161.22982407 1.87065697 C163.75975342 2.05647406 166.28858978 2.23205243 168.82007217 2.39299965 C169.48814852 2.43568688 170.15622487 2.47837412 170.84454596 2.5223549 C172.70498795 2.6400159 174.56557594 2.75536186 176.42617226 2.87055683 C181.66646174 3.27792238 186.81910548 4.07131229 191.99887085 4.94621277 C193.0669397 5.1228949 194.13500854 5.29957703 195.23544312 5.48161316 C248.21049419 14.37586825 298.68009664 33.7050046 339.81137085 69.13371277 C340.88041359 70.02066212 341.95080466 70.90598801 343.02230835 71.78996277 C355.25641938 81.96417797 366.94501021 92.99278107 376.7684021 105.54386902 C378.135673 107.27713978 379.55117045 108.97337874 381.0105896 110.62980652 C394.50391646 125.99658702 405.52894287 143.95028021 414.81137085 162.13371277 C415.34472046 163.17060242 415.87807007 164.20749207 416.42758179 165.27580261 C434.75606878 201.20188601 446.51911294 239.32555048 452.81137085 279.13371277 C453.08739136 280.84784363 453.08739136 280.84784363 453.36898804 282.59660339 C453.93002855 286.12734004 454.46955321 289.6605885 454.99887085 293.19621277 C455.15396118 294.20981873 455.30905151 295.22342468 455.46884155 296.26774597 C458.61651606 318.40781947 459.18775628 340.67732137 459.12922668 363.00551224 C459.12378172 365.16912765 459.12141699 367.3327321 459.11935425 369.49635315 C459.05845443 410.56752122 456.48338437 451.14179642 447.43930054 491.31340027 C446.82282759 494.08225544 446.23925608 496.85625385 445.66293335 499.63371277 C434.18220878 553.9624896 409.44000398 607.70276444 374.81137085 651.13371277 C374.01988647 652.13918152 373.2284021 653.14465027 372.41293335 654.18058777 C359.82484567 669.90433628 345.63642934 684.67253703 329.81137085 697.13371277 C328.66873077 698.07528311 327.52821936 699.01944077 326.38949585 699.96574402 C295.91927272 725.12314757 259.87979093 741.46478006 222.06137085 752.19621277 C221.00788452 752.49551697 219.95439819 752.79482117 218.86898804 753.10319519 C214.37344419 754.33390742 210.5004372 755.29683353 205.81137085 755.13371277 C205.52117065 754.59818787 205.23097046 754.06266296 204.93197632 753.51091003 C192.8714608 731.27624322 180.54381397 709.21254154 167.72982788 687.40275574 C166.0026232 684.45960599 164.27974795 681.51399639 162.55906677 678.56703186 C161.05409039 675.98961737 159.54776613 673.412992 158.04125977 670.83647156 C157.32012468 669.60274397 156.59938309 668.36878626 155.87908936 667.13456726 C150.97168176 658.72850361 145.94722693 650.40236395 140.81137085 642.13371277 C140.19842163 641.14540466 139.58547241 640.15709656 138.95394897 639.13883972 C119.68993853 608.12968004 99.71708968 577.61018045 78.23178101 548.08879089 C77.03829337 546.44605301 75.85174479 544.79827687 74.6668396 543.14933777 C64.99041505 529.7042005 54.76849998 516.69171712 44.25570679 503.89396667 C42.95992248 502.31475692 41.67039286 500.73041991 40.38168335 499.14543152 C31.95966164 488.79024113 23.37608137 478.63565963 14.30355835 468.84465027 C12.2198683 466.57806579 10.19043984 464.28275404 8.18637085 461.94621277 C4.8939708 458.13563838 1.33828727 454.62374337 -2.2706604 451.11418152 C-6.1722614 447.08544078 -6.47512123 444.15943382 -6.43751812 438.81763268 C-6.4401254 438.06314445 -6.44273269 437.30865622 -6.44541898 436.53130472 C-6.45175568 433.98270562 -6.44373326 431.43434949 -6.43586731 428.88575745 C-6.43745437 427.04834388 -6.43991694 425.21093089 -6.44318372 423.37351954 C-6.44961984 418.30849964 -6.44351166 413.24355922 -6.43541944 408.17854452 C-6.42885965 402.72249177 -6.43378713 397.26644816 -6.43730164 391.81039429 C-6.44235149 381.11625214 -6.43669231 370.42214085 -6.42745133 359.72800253 C-6.41708579 347.28702614 -6.41713703 334.84605648 -6.41762391 322.40507658 C-6.41814007 299.54504776 -6.40809292 276.68503261 -6.39312147 253.82500954 C-6.3794937 232.93962702 -6.37326031 212.05425595 -6.37393188 191.16886902 C-6.3739723 189.82759684 -6.37401266 188.48632466 -6.37405296 187.14505248 C-6.37407331 186.48196436 -6.37409367 185.81887623 -6.37411463 185.13569453 C-6.37487489 159.95996543 -6.36922504 134.78424212 -6.36002203 109.60851478 C-6.35699954 100.92565391 -6.35594175 92.24279404 -6.35548973 83.55993271 C-6.35480919 72.98765663 -6.35036679 62.41538967 -6.34115692 51.84311746 C-6.33652455 46.44360906 -6.3334987 41.04411235 -6.33475113 35.64460182 C-6.33584022 30.71019771 -6.33236451 25.77581954 -6.3251026 20.84142084 C-6.32327825 19.04810039 -6.32316957 17.25477728 -6.32486989 15.4614567 C-6.32691276 13.04030984 -6.32291083 10.61924983 -6.3172636 8.19811058 C-6.31931892 7.48766142 -6.32137424 6.77721225 -6.32349184 6.04523432 C-6.29798333 0.13568219 -5.78970515 0.00986193 0 0 Z " fill="#FEFEFE" transform="translate(1447.1886291503906,530.8662872314453)"/>
<path d="M0 0 C0.96774292 1.70756531 0.96774292 1.70756531 1.63623047 3.9675293 C1.89719513 4.81829544 2.15815979 5.66906158 2.42703247 6.54560852 C2.83053421 7.95195808 2.83053421 7.95195808 3.2421875 9.38671875 C3.53769501 10.36541428 3.83320251 11.3441098 4.13766479 12.35246277 C4.77455938 14.46689586 5.40413268 16.58354495 6.02722168 18.7020874 C6.99299158 21.97624005 7.9829402 25.24204164 8.98144531 28.50634766 C10.69820014 34.12332143 12.39740006 39.74538365 14.08935547 45.36987305 C15.12942051 48.82719439 16.1719268 52.28377236 17.21484375 55.74023438 C20.0742537 65.22474568 22.92688387 74.71066667 25.70703125 84.21875 C28.2589011 92.94418569 30.97140358 101.61742591 33.69335938 110.29101562 C35.91530573 117.40510822 38.03026097 124.53989238 40.05981445 131.71118164 C41.41506603 136.45192275 42.86053424 141.16317004 44.3125 145.875 C46.7332164 153.77328793 49.08379147 161.68823775 51.375 169.625 C55.83848482 185.05266088 60.6611237 200.36947807 65.47265625 215.69140625 C67.96780181 223.6401994 70.39247961 231.60738892 72.77246094 239.59130859 C74.28047145 244.6395717 75.83764585 249.66762978 77.4375 254.6875 C79.56668294 261.39163038 81.44549409 268.15628083 83.3125 274.9375 C85.96942607 284.57368347 88.90653008 294.08621269 92.0078125 303.58764648 C94.79458712 312.1926264 97.27830258 320.86511714 99.65429688 329.59179688 C101.05654886 334.72656388 102.56332314 339.7834912 104.28344727 344.8203125 C105.77535527 349.35855941 106.9559159 353.98892491 108.19335938 358.6015625 C109.05165739 361.75493327 109.9056528 364.77100815 111.15234375 367.796875 C112 370 112 370 112 374 C110.37288407 373.59167433 108.74843513 373.17272272 107.125 372.75 C106.22007812 372.51796875 105.31515625 372.2859375 104.3828125 372.046875 C99.80447885 370.63002348 95.43193623 368.81891897 91 367 C89.67548417 366.46160621 88.35076161 365.92372083 87.02587891 365.38623047 C-32.25534132 316.95433669 -32.25534132 316.95433669 -70 287 C-70.9075 286.29617188 -71.815 285.59234375 -72.75 284.8671875 C-93.62723525 268.31960615 -107.65888276 247.97273157 -119 224 C-119.7115625 222.52466797 -119.7115625 222.52466797 -120.4375 221.01953125 C-136.49970824 185.43170112 -135.10021597 143.69381645 -122.109375 107.5390625 C-112.66851172 82.66466463 -98.13322081 62.30310603 -80 43 C-79.41863281 42.36449219 -78.83726562 41.72898437 -78.23828125 41.07421875 C-65.00575496 27.10840385 -20.35640826 -8.15886077 0 0 Z " fill="#FDFDFD" transform="translate(1089,890)"/>
<path d="M0 0 C4.45431389 2.11684674 8.26744695 4.92604317 12.25 7.8125 C13.04414307 8.38709961 13.83828613 8.96169922 14.65649414 9.55371094 C22.07406863 14.97002192 29.19977984 20.70363885 36.26464844 26.56884766 C37.80160365 27.83638163 39.35658166 29.08199207 40.9140625 30.32421875 C47.7582972 35.78547387 54.11583493 41.69154712 60.4765625 47.69921875 C63.26226284 50.32537578 66.10443525 52.86979295 69 55.375 C73.05817962 58.96463747 76.58840601 62.79451306 80 67 C80.74894531 67.92296875 81.49789063 68.8459375 82.26953125 69.796875 C107.86672653 101.93540513 122.51337966 138.66303317 129 179 C129.12004395 179.69287109 129.24008789 180.38574219 129.36376953 181.09960938 C137.60245561 229.27934736 128.17456799 287.23814802 101 328 C98.62279284 324.43418926 97.41967662 320.73807112 96.06640625 316.7109375 C95.78780258 315.8930777 95.50919891 315.0752179 95.22215271 314.23257446 C94.33150442 311.61475411 93.44695692 308.99491783 92.5625 306.375 C91.97109738 304.63398061 91.37930471 302.89309366 90.78710938 301.15234375 C88.65780805 294.88632348 86.53605328 288.61803283 84.45019531 282.33740234 C83.24512455 278.7174535 82.00045559 275.11340717 80.73046875 271.515625 C76.66631771 259.92621372 72.66062645 248.36738374 69.39697266 236.52197266 C66.94919267 227.67256573 64.25620023 218.90192645 61.5625 210.125 C61.07501503 208.53459196 60.58754752 206.94417857 60.10009766 205.35375977 C58.73500127 200.90201371 57.36769653 196.45094778 56 192 C49.46633203 170.72962829 43.15116156 149.39410979 36.98046875 128.015625 C33.34892185 115.41354912 33.34892185 115.41354912 29.3125 102.9375 C27.32540083 97.11124807 25.693311 91.25390721 24.1484375 85.296875 C22.51301533 79.08049634 20.66443545 72.92471488 18.85253906 66.75805664 C16.48320829 58.6841546 14.17239012 50.59463414 11.875 42.5 C9.7186652 34.90590652 7.52834531 27.33234933 5.125 19.8125 C3.45319727 14.5670787 2.0793785 9.39689248 1 4 C0.67326044 2.66503552 0.3416427 1.33122844 0 0 Z " fill="#FCFCFC" transform="translate(1387,1489)"/>
<path d="M0 0 C2.6202466 1.3101233 2.63463229 2.25413641 3.56542969 4.98925781 C4.00878914 6.27556595 4.00878914 6.27556595 4.46110535 7.58786011 C4.77815933 8.53339752 5.09521332 9.47893494 5.421875 10.453125 C5.75814407 11.43838165 6.09441315 12.42363831 6.44087219 13.43875122 C7.55250161 16.70632724 8.65193255 19.97784341 9.75 23.25 C10.13026337 24.3760968 10.51052673 25.5021936 10.90231323 26.66241455 C17.99672708 47.67730113 24.68780182 68.80314466 31.16845703 90.01416016 C33.17188956 96.56914651 35.19312097 103.11860474 37.21484375 109.66796875 C44.48416592 133.2306487 44.48416592 133.2306487 47.23046875 142.22705078 C48.4023659 146.06469111 49.59425874 149.89528086 50.80078125 153.72216797 C51.3569212 155.5113465 51.91291805 157.30056952 52.46875 159.08984375 C52.72611938 159.89120255 52.98348877 160.69256134 53.24865723 161.51820374 C54.68878739 166.19690636 55.26319124 170.10374937 55 175 C54.06542969 175.27972656 53.13085938 175.55945313 52.16796875 175.84765625 C-4.19926182 192.94717271 -64.52199903 225.36459469 -100 274 C-101 272 -101 272 -100.17407227 269.35009766 C-99.72604248 268.21620605 -99.2780127 267.08231445 -98.81640625 265.9140625 C-98.57019028 265.28257797 -98.3239743 264.65109344 -98.07029724 264.00047302 C-97.52836895 262.61134729 -96.9832073 261.22347986 -96.43530273 259.83670044 C-94.91863649 255.99343635 -93.42996232 252.13937798 -91.94140625 248.28515625 C-91.6227359 247.46093674 -91.30406555 246.63671722 -90.97573853 245.78752136 C-87.1793007 235.92954662 -83.59028671 225.99697302 -80 216.0625 C-78.63220374 212.28230085 -77.26364292 208.50237917 -75.89453125 204.72265625 C-75.5611676 203.80218506 -75.22780396 202.88171387 -74.88433838 201.93334961 C-71.86435118 193.60509478 -68.78532467 185.29955518 -65.6875 177 C-60.70514457 163.64705052 -55.80097191 150.26646518 -50.91876221 136.87658691 C-34.24131628 91.140719 -17.10881941 45.57575566 0 0 Z " fill="#FCFCFC" transform="translate(1026,695)"/>
<path d="M0 0 C0.33 0 0.66 0 1 0 C0.67 10.56 0.34 21.12 0 32 C-0.33 32 -0.66 32 -1 32 C-1.33 24.74 -1.66 17.48 -2 10 C-2.99 10.495 -2.99 10.495 -4 11 C-3.52269162 9.5410574 -3.04308958 8.08286504 -2.5625 6.625 C-2.29566406 5.81289062 -2.02882813 5.00078125 -1.75390625 4.1640625 C-1 2 -1 2 0 0 Z " fill="#B8B8B8" transform="translate(878,1092)"/>
</svg>
